<mxfile host="Electron" modified="2024-01-28T18:10:30.605Z" agent="Mozilla/5.0 (Windows NT 10.0; Win64; x64) AppleWebKit/537.36 (KHTML, like Gecko) draw.io/23.0.2 Chrome/120.0.6099.109 Electron/28.1.0 Safari/537.36" etag="tzf3qSlkeSOpQ80zAh6r" version="23.0.2" type="device">
  <diagram id="C5RBs43oDa-KdzZeNtuy" name="Page-1">
    <mxGraphModel dx="1036" dy="606" grid="1" gridSize="10" guides="1" tooltips="1" connect="1" arrows="1" fold="1" page="1" pageScale="1" pageWidth="827" pageHeight="1169" math="0" shadow="0">
      <root>
        <mxCell id="WIyWlLk6GJQsqaUBKTNV-0" />
        <mxCell id="WIyWlLk6GJQsqaUBKTNV-1" parent="WIyWlLk6GJQsqaUBKTNV-0" />
        <mxCell id="z0uvfHS7ZiqCJmM0plhf-82" value="Consulteur plannir" style="ellipse;whiteSpace=wrap;html=1;fillColor=#dae8fc;strokeColor=#6c8ebf;" vertex="1" parent="WIyWlLk6GJQsqaUBKTNV-1">
          <mxGeometry x="300" y="60" width="120" height="80" as="geometry" />
        </mxCell>
        <mxCell id="z0uvfHS7ZiqCJmM0plhf-83" value="Utilisateur salle" style="shape=umlActor;verticalLabelPosition=bottom;verticalAlign=top;html=1;outlineConnect=0;fillColor=#dae8fc;strokeColor=#6c8ebf;" vertex="1" parent="WIyWlLk6GJQsqaUBKTNV-1">
          <mxGeometry x="140" y="100" width="30" height="60" as="geometry" />
        </mxCell>
        <mxCell id="z0uvfHS7ZiqCJmM0plhf-84" value="Responsable formation" style="shape=umlActor;verticalLabelPosition=bottom;verticalAlign=top;html=1;outlineConnect=0;fillColor=#dae8fc;strokeColor=#6c8ebf;" vertex="1" parent="WIyWlLk6GJQsqaUBKTNV-1">
          <mxGeometry x="140" y="400" width="30" height="60" as="geometry" />
        </mxCell>
        <mxCell id="z0uvfHS7ZiqCJmM0plhf-85" value="Consulteur récap horaire enseignant" style="ellipse;whiteSpace=wrap;html=1;fillColor=#dae8fc;strokeColor=#6c8ebf;" vertex="1" parent="WIyWlLk6GJQsqaUBKTNV-1">
          <mxGeometry x="460" y="80" width="220" height="80" as="geometry" />
        </mxCell>
        <mxCell id="z0uvfHS7ZiqCJmM0plhf-86" value="Réservation salle" style="ellipse;whiteSpace=wrap;html=1;fillColor=#dae8fc;strokeColor=#6c8ebf;" vertex="1" parent="WIyWlLk6GJQsqaUBKTNV-1">
          <mxGeometry x="550" y="180" width="120" height="80" as="geometry" />
        </mxCell>
        <mxCell id="z0uvfHS7ZiqCJmM0plhf-87" value="Réservation" style="ellipse;whiteSpace=wrap;html=1;fillColor=#dae8fc;strokeColor=#6c8ebf;" vertex="1" parent="WIyWlLk6GJQsqaUBKTNV-1">
          <mxGeometry x="250" y="230" width="120" height="80" as="geometry" />
        </mxCell>
        <mxCell id="z0uvfHS7ZiqCJmM0plhf-88" value="Réserver matériel&amp;nbsp;" style="ellipse;whiteSpace=wrap;html=1;fillColor=#dae8fc;strokeColor=#6c8ebf;" vertex="1" parent="WIyWlLk6GJQsqaUBKTNV-1">
          <mxGeometry x="510" y="280" width="150" height="80" as="geometry" />
        </mxCell>
        <mxCell id="z0uvfHS7ZiqCJmM0plhf-89" value="véerification disponibilité" style="ellipse;whiteSpace=wrap;html=1;fillColor=#dae8fc;strokeColor=#6c8ebf;" vertex="1" parent="WIyWlLk6GJQsqaUBKTNV-1">
          <mxGeometry x="250" y="370" width="180" height="80" as="geometry" />
        </mxCell>
        <mxCell id="z0uvfHS7ZiqCJmM0plhf-90" value="Réserver vidéo" style="ellipse;whiteSpace=wrap;html=1;fillColor=#dae8fc;strokeColor=#6c8ebf;" vertex="1" parent="WIyWlLk6GJQsqaUBKTNV-1">
          <mxGeometry x="490" y="400" width="120" height="80" as="geometry" />
        </mxCell>
        <mxCell id="z0uvfHS7ZiqCJmM0plhf-91" value="Réserver portable" style="ellipse;whiteSpace=wrap;html=1;fillColor=#dae8fc;strokeColor=#6c8ebf;" vertex="1" parent="WIyWlLk6GJQsqaUBKTNV-1">
          <mxGeometry x="660" y="400" width="120" height="80" as="geometry" />
        </mxCell>
        <mxCell id="z0uvfHS7ZiqCJmM0plhf-92" value="Editer récap formation" style="ellipse;whiteSpace=wrap;html=1;fillColor=#dae8fc;strokeColor=#6c8ebf;" vertex="1" parent="WIyWlLk6GJQsqaUBKTNV-1">
          <mxGeometry x="240" y="470" width="150" height="80" as="geometry" />
        </mxCell>
        <mxCell id="z0uvfHS7ZiqCJmM0plhf-93" value="Enseignant" style="shape=umlActor;verticalLabelPosition=bottom;verticalAlign=top;html=1;outlineConnect=0;fillColor=#dae8fc;strokeColor=#6c8ebf;" vertex="1" parent="WIyWlLk6GJQsqaUBKTNV-1">
          <mxGeometry x="170" y="250" width="30" height="60" as="geometry" />
        </mxCell>
        <mxCell id="z0uvfHS7ZiqCJmM0plhf-94" value="" style="endArrow=classic;html=1;rounded=0;entryX=1;entryY=1;entryDx=0;entryDy=0;exitX=0.217;exitY=0.125;exitDx=0;exitDy=0;exitPerimeter=0;fillColor=#dae8fc;strokeColor=#6c8ebf;" edge="1" parent="WIyWlLk6GJQsqaUBKTNV-1" source="z0uvfHS7ZiqCJmM0plhf-91" target="z0uvfHS7ZiqCJmM0plhf-88">
          <mxGeometry width="50" height="50" relative="1" as="geometry">
            <mxPoint x="670" y="400" as="sourcePoint" />
            <mxPoint x="720" y="350" as="targetPoint" />
          </mxGeometry>
        </mxCell>
        <mxCell id="z0uvfHS7ZiqCJmM0plhf-95" value="" style="endArrow=classic;html=1;rounded=0;entryX=1;entryY=0.5;entryDx=0;entryDy=0;fillColor=#dae8fc;strokeColor=#6c8ebf;" edge="1" parent="WIyWlLk6GJQsqaUBKTNV-1" source="z0uvfHS7ZiqCJmM0plhf-88" target="z0uvfHS7ZiqCJmM0plhf-87">
          <mxGeometry width="50" height="50" relative="1" as="geometry">
            <mxPoint x="410" y="310" as="sourcePoint" />
            <mxPoint x="460" y="260" as="targetPoint" />
          </mxGeometry>
        </mxCell>
        <mxCell id="z0uvfHS7ZiqCJmM0plhf-96" value="" style="endArrow=classic;html=1;rounded=0;entryX=1;entryY=0;entryDx=0;entryDy=0;fillColor=#dae8fc;strokeColor=#6c8ebf;" edge="1" parent="WIyWlLk6GJQsqaUBKTNV-1" source="z0uvfHS7ZiqCJmM0plhf-86" target="z0uvfHS7ZiqCJmM0plhf-87">
          <mxGeometry width="50" height="50" relative="1" as="geometry">
            <mxPoint x="470" y="245" as="sourcePoint" />
            <mxPoint x="520" y="195" as="targetPoint" />
          </mxGeometry>
        </mxCell>
        <mxCell id="z0uvfHS7ZiqCJmM0plhf-97" value="" style="endArrow=classic;html=1;rounded=0;fillColor=#dae8fc;strokeColor=#6c8ebf;" edge="1" parent="WIyWlLk6GJQsqaUBKTNV-1" source="z0uvfHS7ZiqCJmM0plhf-90">
          <mxGeometry width="50" height="50" relative="1" as="geometry">
            <mxPoint x="490" y="390" as="sourcePoint" />
            <mxPoint x="540" y="350" as="targetPoint" />
          </mxGeometry>
        </mxCell>
        <mxCell id="z0uvfHS7ZiqCJmM0plhf-98" value="" style="endArrow=none;html=1;rounded=0;exitX=0.5;exitY=0.5;exitDx=0;exitDy=0;exitPerimeter=0;fillColor=#dae8fc;strokeColor=#6c8ebf;" edge="1" parent="WIyWlLk6GJQsqaUBKTNV-1" source="z0uvfHS7ZiqCJmM0plhf-83">
          <mxGeometry width="50" height="50" relative="1" as="geometry">
            <mxPoint x="250" y="150" as="sourcePoint" />
            <mxPoint x="300" y="100" as="targetPoint" />
          </mxGeometry>
        </mxCell>
        <mxCell id="z0uvfHS7ZiqCJmM0plhf-99" value="" style="endArrow=none;html=1;rounded=0;fillColor=#dae8fc;strokeColor=#6c8ebf;" edge="1" parent="WIyWlLk6GJQsqaUBKTNV-1">
          <mxGeometry width="50" height="50" relative="1" as="geometry">
            <mxPoint x="190" y="480" as="sourcePoint" />
            <mxPoint x="240" y="500" as="targetPoint" />
          </mxGeometry>
        </mxCell>
        <mxCell id="z0uvfHS7ZiqCJmM0plhf-100" value="" style="endArrow=classic;html=1;rounded=0;fillColor=#dae8fc;strokeColor=#6c8ebf;" edge="1" parent="WIyWlLk6GJQsqaUBKTNV-1">
          <mxGeometry width="50" height="50" relative="1" as="geometry">
            <mxPoint x="160" y="400" as="sourcePoint" />
            <mxPoint x="180" y="330" as="targetPoint" />
          </mxGeometry>
        </mxCell>
        <mxCell id="z0uvfHS7ZiqCJmM0plhf-101" value="" style="endArrow=none;html=1;rounded=0;fillColor=#dae8fc;strokeColor=#6c8ebf;" edge="1" parent="WIyWlLk6GJQsqaUBKTNV-1">
          <mxGeometry width="50" height="50" relative="1" as="geometry">
            <mxPoint x="370" y="140" as="sourcePoint" />
            <mxPoint x="470" y="130" as="targetPoint" />
          </mxGeometry>
        </mxCell>
        <mxCell id="z0uvfHS7ZiqCJmM0plhf-102" value="" style="endArrow=none;html=1;rounded=0;fillColor=#dae8fc;strokeColor=#6c8ebf;" edge="1" parent="WIyWlLk6GJQsqaUBKTNV-1" source="z0uvfHS7ZiqCJmM0plhf-93">
          <mxGeometry width="50" height="50" relative="1" as="geometry">
            <mxPoint x="320" y="190" as="sourcePoint" />
            <mxPoint x="370" y="140" as="targetPoint" />
            <Array as="points">
              <mxPoint x="180" y="250" />
            </Array>
          </mxGeometry>
        </mxCell>
        <mxCell id="z0uvfHS7ZiqCJmM0plhf-103" value="" style="endArrow=classic;html=1;rounded=0;entryX=0.667;entryY=1.333;entryDx=0;entryDy=0;entryPerimeter=0;fillColor=#dae8fc;strokeColor=#6c8ebf;" edge="1" parent="WIyWlLk6GJQsqaUBKTNV-1" target="z0uvfHS7ZiqCJmM0plhf-83">
          <mxGeometry width="50" height="50" relative="1" as="geometry">
            <mxPoint x="180" y="250" as="sourcePoint" />
            <mxPoint x="230" y="200" as="targetPoint" />
          </mxGeometry>
        </mxCell>
        <mxCell id="z0uvfHS7ZiqCJmM0plhf-104" value="" style="endArrow=none;html=1;rounded=0;exitX=0.367;exitY=0.4;exitDx=0;exitDy=0;exitPerimeter=0;fillColor=#dae8fc;strokeColor=#6c8ebf;" edge="1" parent="WIyWlLk6GJQsqaUBKTNV-1" source="z0uvfHS7ZiqCJmM0plhf-93">
          <mxGeometry width="50" height="50" relative="1" as="geometry">
            <mxPoint x="200" y="320" as="sourcePoint" />
            <mxPoint x="250" y="270" as="targetPoint" />
            <Array as="points">
              <mxPoint x="181" y="270" />
            </Array>
          </mxGeometry>
        </mxCell>
        <mxCell id="z0uvfHS7ZiqCJmM0plhf-105" value="" style="endArrow=block;dashed=1;endFill=0;endSize=12;html=1;rounded=0;entryX=0.406;entryY=0.038;entryDx=0;entryDy=0;entryPerimeter=0;fillColor=#dae8fc;strokeColor=#6c8ebf;" edge="1" parent="WIyWlLk6GJQsqaUBKTNV-1" target="z0uvfHS7ZiqCJmM0plhf-89">
          <mxGeometry width="160" relative="1" as="geometry">
            <mxPoint x="320" y="310" as="sourcePoint" />
            <mxPoint x="480" y="310" as="targetPoint" />
          </mxGeometry>
        </mxCell>
        <mxCell id="z0uvfHS7ZiqCJmM0plhf-106" value="&amp;lt;&amp;lt;include&amp;gt;&amp;gt;" style="text;html=1;align=center;verticalAlign=middle;resizable=0;points=[];autosize=1;strokeColor=none;fillColor=none;" vertex="1" parent="WIyWlLk6GJQsqaUBKTNV-1">
          <mxGeometry x="280" y="318" width="90" height="30" as="geometry" />
        </mxCell>
        <mxCell id="z0uvfHS7ZiqCJmM0plhf-107" value="" style="rounded=0;whiteSpace=wrap;html=1;" vertex="1" parent="WIyWlLk6GJQsqaUBKTNV-1">
          <mxGeometry x="30" y="800" width="500" height="550" as="geometry" />
        </mxCell>
        <mxCell id="z0uvfHS7ZiqCJmM0plhf-108" value="jour" style="rounded=0;whiteSpace=wrap;html=1;" vertex="1" parent="WIyWlLk6GJQsqaUBKTNV-1">
          <mxGeometry x="35" y="810" width="70" height="40" as="geometry" />
        </mxCell>
        <mxCell id="z0uvfHS7ZiqCJmM0plhf-109" value="operation" style="rounded=0;whiteSpace=wrap;html=1;" vertex="1" parent="WIyWlLk6GJQsqaUBKTNV-1">
          <mxGeometry x="110" y="810" width="330" height="40" as="geometry" />
        </mxCell>
        <mxCell id="z0uvfHS7ZiqCJmM0plhf-110" value="Totale heurs" style="rounded=0;whiteSpace=wrap;html=1;" vertex="1" parent="WIyWlLk6GJQsqaUBKTNV-1">
          <mxGeometry x="450" y="810" width="70" height="40" as="geometry" />
        </mxCell>
        <mxCell id="z0uvfHS7ZiqCJmM0plhf-111" value="1" style="rounded=0;whiteSpace=wrap;html=1;" vertex="1" parent="WIyWlLk6GJQsqaUBKTNV-1">
          <mxGeometry x="35" y="860" width="70" height="60" as="geometry" />
        </mxCell>
        <mxCell id="z0uvfHS7ZiqCJmM0plhf-112" value="" style="rounded=0;whiteSpace=wrap;html=1;" vertex="1" parent="WIyWlLk6GJQsqaUBKTNV-1">
          <mxGeometry x="110" y="860" width="330" height="60" as="geometry" />
        </mxCell>
        <mxCell id="z0uvfHS7ZiqCJmM0plhf-113" value="0 h" style="rounded=0;whiteSpace=wrap;html=1;" vertex="1" parent="WIyWlLk6GJQsqaUBKTNV-1">
          <mxGeometry x="450" y="860" width="70" height="60" as="geometry" />
        </mxCell>
        <mxCell id="z0uvfHS7ZiqCJmM0plhf-114" value="2" style="rounded=0;whiteSpace=wrap;html=1;" vertex="1" parent="WIyWlLk6GJQsqaUBKTNV-1">
          <mxGeometry x="35" y="930" width="70" height="60" as="geometry" />
        </mxCell>
        <mxCell id="z0uvfHS7ZiqCJmM0plhf-115" value="" style="rounded=0;whiteSpace=wrap;html=1;" vertex="1" parent="WIyWlLk6GJQsqaUBKTNV-1">
          <mxGeometry x="110" y="930" width="330" height="60" as="geometry" />
        </mxCell>
        <mxCell id="z0uvfHS7ZiqCJmM0plhf-116" value="0 h" style="rounded=0;whiteSpace=wrap;html=1;" vertex="1" parent="WIyWlLk6GJQsqaUBKTNV-1">
          <mxGeometry x="445" y="930" width="75" height="60" as="geometry" />
        </mxCell>
        <mxCell id="z0uvfHS7ZiqCJmM0plhf-117" value="3" style="rounded=0;whiteSpace=wrap;html=1;" vertex="1" parent="WIyWlLk6GJQsqaUBKTNV-1">
          <mxGeometry x="35" y="998" width="70" height="60" as="geometry" />
        </mxCell>
        <mxCell id="z0uvfHS7ZiqCJmM0plhf-118" value="&lt;u&gt;Taille&lt;/u&gt; : 24 .00 h&amp;nbsp; &amp;nbsp; &amp;nbsp; &amp;nbsp; &amp;nbsp; &amp;nbsp; &amp;nbsp; &amp;nbsp; &amp;nbsp; &amp;nbsp; &amp;nbsp; &amp;nbsp; &amp;nbsp; &amp;nbsp; &amp;nbsp; &amp;nbsp; &amp;nbsp; &amp;nbsp; &amp;nbsp; &amp;nbsp; &amp;nbsp; &amp;nbsp; &amp;nbsp; &amp;nbsp; &amp;nbsp; &amp;nbsp; &amp;nbsp; &amp;nbsp; &amp;nbsp; &amp;nbsp; &amp;nbsp; &amp;nbsp; &amp;nbsp; &amp;nbsp; &amp;nbsp; &amp;nbsp; &amp;nbsp; &amp;nbsp; &amp;nbsp; &amp;nbsp; &amp;nbsp; &amp;nbsp; &amp;nbsp; &amp;nbsp; &amp;nbsp; &amp;nbsp; &amp;nbsp; &amp;nbsp; &amp;nbsp; &amp;nbsp; &amp;nbsp; &amp;nbsp; &amp;nbsp; &amp;nbsp; &amp;nbsp; &amp;nbsp;&amp;nbsp;" style="rounded=0;whiteSpace=wrap;html=1;shadow=0;glass=0;" vertex="1" parent="WIyWlLk6GJQsqaUBKTNV-1">
          <mxGeometry x="110" y="1000" width="330" height="60" as="geometry" />
        </mxCell>
        <mxCell id="z0uvfHS7ZiqCJmM0plhf-119" value="24 h" style="rounded=0;whiteSpace=wrap;html=1;shadow=0;glass=0;strokeColor=default;fontFamily=Helvetica;fontSize=12;fontColor=default;fillColor=default;" vertex="1" parent="WIyWlLk6GJQsqaUBKTNV-1">
          <mxGeometry x="445" y="1000" width="75" height="60" as="geometry" />
        </mxCell>
        <mxCell id="z0uvfHS7ZiqCJmM0plhf-120" value="&lt;u style=&quot;border-color: var(--border-color);&quot;&gt;Taille&lt;/u&gt;&amp;nbsp;: 15 .00 h&amp;nbsp; &amp;nbsp; &amp;nbsp; &amp;nbsp; &amp;nbsp; &amp;nbsp; &amp;nbsp; &amp;nbsp; &amp;nbsp; &amp;nbsp; &amp;nbsp; &amp;nbsp; &amp;nbsp; &amp;nbsp; &amp;nbsp; &amp;nbsp; &amp;nbsp; &amp;nbsp; &amp;nbsp; &amp;nbsp; &amp;nbsp; &amp;nbsp; &amp;nbsp; &amp;nbsp; &amp;nbsp; &amp;nbsp; &amp;nbsp; &amp;nbsp; &amp;nbsp; &amp;nbsp; &amp;nbsp; &amp;nbsp; &amp;nbsp; &amp;nbsp; &amp;nbsp; &amp;nbsp; &amp;nbsp; &amp;nbsp; &amp;nbsp; &amp;nbsp; &amp;nbsp; &amp;nbsp; &amp;nbsp; &amp;nbsp; &amp;nbsp; &amp;nbsp; &amp;nbsp; &amp;nbsp; &amp;nbsp; &amp;nbsp; &amp;nbsp; &amp;nbsp; &amp;nbsp; &amp;nbsp; &amp;nbsp;&amp;nbsp;" style="rounded=0;whiteSpace=wrap;html=1;shadow=0;glass=0;strokeColor=default;fontFamily=Helvetica;fontSize=12;fontColor=default;fillColor=default;" vertex="1" parent="WIyWlLk6GJQsqaUBKTNV-1">
          <mxGeometry x="110" y="1070" width="330" height="60" as="geometry" />
        </mxCell>
        <mxCell id="z0uvfHS7ZiqCJmM0plhf-121" value="15 h" style="rounded=0;whiteSpace=wrap;html=1;shadow=0;glass=0;strokeColor=default;fontFamily=Helvetica;fontSize=12;fontColor=default;fillColor=default;" vertex="1" parent="WIyWlLk6GJQsqaUBKTNV-1">
          <mxGeometry x="445" y="1070" width="75" height="60" as="geometry" />
        </mxCell>
        <mxCell id="z0uvfHS7ZiqCJmM0plhf-122" value="4" style="rounded=0;whiteSpace=wrap;html=1;shadow=0;glass=0;strokeColor=default;fontFamily=Helvetica;fontSize=12;fontColor=default;fillColor=default;" vertex="1" parent="WIyWlLk6GJQsqaUBKTNV-1">
          <mxGeometry x="35" y="1070" width="70" height="60" as="geometry" />
        </mxCell>
        <mxCell id="z0uvfHS7ZiqCJmM0plhf-123" value="5" style="rounded=0;whiteSpace=wrap;html=1;shadow=0;glass=0;strokeColor=default;fontFamily=Helvetica;fontSize=12;fontColor=default;fillColor=default;" vertex="1" parent="WIyWlLk6GJQsqaUBKTNV-1">
          <mxGeometry x="35" y="1140" width="70" height="60" as="geometry" />
        </mxCell>
        <mxCell id="z0uvfHS7ZiqCJmM0plhf-124" value="&lt;br&gt;&lt;u style=&quot;border-color: var(--border-color); color: rgb(0, 0, 0); font-family: Helvetica; font-size: 12px; font-style: normal; font-variant-ligatures: normal; font-variant-caps: normal; font-weight: 400; letter-spacing: normal; orphans: 2; text-align: center; text-indent: 0px; text-transform: none; widows: 2; word-spacing: 0px; -webkit-text-stroke-width: 0px; background-color: rgb(251, 251, 251);&quot;&gt;Taille&lt;/u&gt;&lt;span style=&quot;color: rgb(0, 0, 0); font-family: Helvetica; font-size: 12px; font-style: normal; font-variant-ligatures: normal; font-variant-caps: normal; font-weight: 400; letter-spacing: normal; orphans: 2; text-align: center; text-indent: 0px; text-transform: none; widows: 2; word-spacing: 0px; -webkit-text-stroke-width: 0px; background-color: rgb(251, 251, 251); text-decoration-thickness: initial; text-decoration-style: initial; text-decoration-color: initial; float: none; display: inline !important;&quot;&gt;&amp;nbsp;: 24 .00 h&amp;nbsp; &amp;nbsp; &amp;nbsp; &amp;nbsp; &amp;nbsp; &amp;nbsp; &amp;nbsp; &amp;nbsp; &amp;nbsp; &amp;nbsp; &amp;nbsp; &amp;nbsp; &amp;nbsp; &amp;nbsp; &amp;nbsp; &amp;nbsp; &amp;nbsp; &amp;nbsp; &amp;nbsp; &amp;nbsp; &amp;nbsp; &amp;nbsp; &amp;nbsp; &amp;nbsp; &amp;nbsp; &amp;nbsp; &amp;nbsp; &amp;nbsp; &amp;nbsp; &amp;nbsp; &amp;nbsp; &amp;nbsp; &amp;nbsp; &amp;nbsp; &amp;nbsp; &amp;nbsp; &amp;nbsp; &amp;nbsp; &amp;nbsp; &amp;nbsp; &amp;nbsp; &amp;nbsp; &amp;nbsp; &amp;nbsp; &amp;nbsp; &amp;nbsp; &amp;nbsp; &amp;nbsp; &amp;nbsp; &amp;nbsp; &amp;nbsp; &amp;nbsp; &amp;nbsp; &amp;nbsp; &amp;nbsp;&amp;nbsp;&lt;/span&gt;&lt;br&gt;" style="rounded=0;whiteSpace=wrap;html=1;" vertex="1" parent="WIyWlLk6GJQsqaUBKTNV-1">
          <mxGeometry x="110" y="1140" width="330" height="60" as="geometry" />
        </mxCell>
        <mxCell id="z0uvfHS7ZiqCJmM0plhf-125" value="24 h" style="rounded=0;whiteSpace=wrap;html=1;" vertex="1" parent="WIyWlLk6GJQsqaUBKTNV-1">
          <mxGeometry x="445" y="1140" width="75" height="60" as="geometry" />
        </mxCell>
        <mxCell id="z0uvfHS7ZiqCJmM0plhf-126" value="6" style="rounded=0;whiteSpace=wrap;html=1;" vertex="1" parent="WIyWlLk6GJQsqaUBKTNV-1">
          <mxGeometry x="35" y="1210" width="70" height="60" as="geometry" />
        </mxCell>
        <mxCell id="z0uvfHS7ZiqCJmM0plhf-127" value="&lt;u&gt;Tirage dee bois :&lt;/u&gt; 24 00 h&amp;nbsp; &amp;nbsp; &amp;nbsp; &amp;nbsp; &amp;nbsp; &amp;nbsp; &amp;nbsp; &amp;nbsp; &amp;nbsp; &amp;nbsp; &amp;nbsp; &amp;nbsp; &amp;nbsp; &amp;nbsp; &amp;nbsp; &amp;nbsp; &amp;nbsp; &amp;nbsp; &amp;nbsp; &amp;nbsp; &amp;nbsp; &amp;nbsp; &amp;nbsp; &amp;nbsp; &amp;nbsp; &amp;nbsp; &amp;nbsp; &amp;nbsp; &amp;nbsp; &amp;nbsp; &amp;nbsp; &amp;nbsp; &amp;nbsp; &amp;nbsp; &amp;nbsp; &amp;nbsp; &amp;nbsp; &amp;nbsp; &amp;nbsp; &amp;nbsp; &amp;nbsp; &amp;nbsp; &amp;nbsp; &amp;nbsp; &amp;nbsp; &amp;nbsp; &amp;nbsp; &amp;nbsp; &amp;nbsp;" style="rounded=0;whiteSpace=wrap;html=1;" vertex="1" parent="WIyWlLk6GJQsqaUBKTNV-1">
          <mxGeometry x="110" y="1210" width="330" height="60" as="geometry" />
        </mxCell>
        <mxCell id="z0uvfHS7ZiqCJmM0plhf-128" value="24 h" style="rounded=0;whiteSpace=wrap;html=1;" vertex="1" parent="WIyWlLk6GJQsqaUBKTNV-1">
          <mxGeometry x="445" y="1210" width="75" height="60" as="geometry" />
        </mxCell>
        <mxCell id="z0uvfHS7ZiqCJmM0plhf-129" value="7" style="rounded=0;whiteSpace=wrap;html=1;" vertex="1" parent="WIyWlLk6GJQsqaUBKTNV-1">
          <mxGeometry x="35" y="1280" width="70" height="60" as="geometry" />
        </mxCell>
        <mxCell id="z0uvfHS7ZiqCJmM0plhf-130" value="Pliage/liage :32 .00 h&amp;nbsp; &amp;nbsp; &amp;nbsp; &amp;nbsp; &amp;nbsp; &amp;nbsp; &amp;nbsp; &amp;nbsp; &amp;nbsp; &amp;nbsp; &amp;nbsp; &amp;nbsp; &amp;nbsp; &amp;nbsp; &amp;nbsp; &amp;nbsp; &amp;nbsp; &amp;nbsp; &amp;nbsp; &amp;nbsp; &amp;nbsp; &amp;nbsp; &amp;nbsp; &amp;nbsp; &amp;nbsp; &amp;nbsp; &amp;nbsp; &amp;nbsp; &amp;nbsp; &amp;nbsp; &amp;nbsp; &amp;nbsp; &amp;nbsp; &amp;nbsp; &amp;nbsp; &amp;nbsp; &amp;nbsp; &amp;nbsp; &amp;nbsp; &amp;nbsp; &amp;nbsp; &amp;nbsp; &amp;nbsp; &amp;nbsp; &amp;nbsp; &amp;nbsp; &amp;nbsp; &amp;nbsp; &amp;nbsp; &amp;nbsp; &amp;nbsp;" style="rounded=0;whiteSpace=wrap;html=1;" vertex="1" parent="WIyWlLk6GJQsqaUBKTNV-1">
          <mxGeometry x="110" y="1280" width="330" height="60" as="geometry" />
        </mxCell>
        <mxCell id="z0uvfHS7ZiqCJmM0plhf-131" value="32 h" style="rounded=0;whiteSpace=wrap;html=1;" vertex="1" parent="WIyWlLk6GJQsqaUBKTNV-1">
          <mxGeometry x="445" y="1280" width="75" height="60" as="geometry" />
        </mxCell>
        <mxCell id="z0uvfHS7ZiqCJmM0plhf-132" value="Saisie BDD" style="ellipse;whiteSpace=wrap;html=1;fillColor=#b1ddf0;strokeColor=#10739e;" vertex="1" parent="WIyWlLk6GJQsqaUBKTNV-1">
          <mxGeometry x="370" y="1440" width="120" height="80" as="geometry" />
        </mxCell>
        <mxCell id="z0uvfHS7ZiqCJmM0plhf-133" value="identification" style="ellipse;whiteSpace=wrap;html=1;fillColor=#b1ddf0;strokeColor=#10739e;" vertex="1" parent="WIyWlLk6GJQsqaUBKTNV-1">
          <mxGeometry x="580" y="1520" width="120" height="80" as="geometry" />
        </mxCell>
        <mxCell id="z0uvfHS7ZiqCJmM0plhf-134" value="" style="endArrow=none;html=1;rounded=0;" edge="1" parent="WIyWlLk6GJQsqaUBKTNV-1">
          <mxGeometry width="50" height="50" relative="1" as="geometry">
            <mxPoint x="490" y="1480" as="sourcePoint" />
            <mxPoint x="520" y="1480" as="targetPoint" />
          </mxGeometry>
        </mxCell>
        <mxCell id="z0uvfHS7ZiqCJmM0plhf-135" value="&amp;lt;&amp;lt;include&amp;gt;&amp;gt;" style="endArrow=none;html=1;rounded=0;" edge="1" parent="WIyWlLk6GJQsqaUBKTNV-1">
          <mxGeometry width="50" height="50" relative="1" as="geometry">
            <mxPoint x="530" y="1480" as="sourcePoint" />
            <mxPoint x="580" y="1480" as="targetPoint" />
          </mxGeometry>
        </mxCell>
        <mxCell id="z0uvfHS7ZiqCJmM0plhf-136" value="" style="endArrow=classic;html=1;rounded=0;" edge="1" parent="WIyWlLk6GJQsqaUBKTNV-1" target="z0uvfHS7ZiqCJmM0plhf-133">
          <mxGeometry width="50" height="50" relative="1" as="geometry">
            <mxPoint x="580" y="1490" as="sourcePoint" />
            <mxPoint x="630" y="1440" as="targetPoint" />
          </mxGeometry>
        </mxCell>
        <mxCell id="z0uvfHS7ZiqCJmM0plhf-137" value="correction eventielle" style="ellipse;whiteSpace=wrap;html=1;fillColor=#b1ddf0;strokeColor=#10739e;" vertex="1" parent="WIyWlLk6GJQsqaUBKTNV-1">
          <mxGeometry x="130" y="1510" width="120" height="80" as="geometry" />
        </mxCell>
        <mxCell id="z0uvfHS7ZiqCJmM0plhf-138" value="etat terravetis" style="ellipse;whiteSpace=wrap;html=1;fillColor=#b1ddf0;strokeColor=#10739e;" vertex="1" parent="WIyWlLk6GJQsqaUBKTNV-1">
          <mxGeometry x="600" y="1640" width="120" height="80" as="geometry" />
        </mxCell>
        <mxCell id="z0uvfHS7ZiqCJmM0plhf-139" value="chef exploitation" style="shape=umlActor;verticalLabelPosition=bottom;verticalAlign=top;html=1;outlineConnect=0;fillColor=#fff2cc;strokeColor=#d6b656;" vertex="1" parent="WIyWlLk6GJQsqaUBKTNV-1">
          <mxGeometry x="410" y="1600" width="30" height="60" as="geometry" />
        </mxCell>
        <mxCell id="z0uvfHS7ZiqCJmM0plhf-140" value="" style="endArrow=none;html=1;rounded=0;entryX=1;entryY=0.3333333333333333;entryDx=0;entryDy=0;entryPerimeter=0;" edge="1" parent="WIyWlLk6GJQsqaUBKTNV-1" target="z0uvfHS7ZiqCJmM0plhf-139">
          <mxGeometry width="50" height="50" relative="1" as="geometry">
            <mxPoint x="410" y="1620" as="sourcePoint" />
            <mxPoint x="460" y="1570" as="targetPoint" />
          </mxGeometry>
        </mxCell>
        <mxCell id="z0uvfHS7ZiqCJmM0plhf-141" value="" style="endArrow=none;html=1;rounded=0;entryX=0.433;entryY=1.063;entryDx=0;entryDy=0;entryPerimeter=0;" edge="1" parent="WIyWlLk6GJQsqaUBKTNV-1" target="z0uvfHS7ZiqCJmM0plhf-132">
          <mxGeometry width="50" height="50" relative="1" as="geometry">
            <mxPoint x="430" y="1600" as="sourcePoint" />
            <mxPoint x="480" y="1550" as="targetPoint" />
          </mxGeometry>
        </mxCell>
        <mxCell id="z0uvfHS7ZiqCJmM0plhf-142" value="" style="endArrow=none;html=1;rounded=0;" edge="1" parent="WIyWlLk6GJQsqaUBKTNV-1" source="z0uvfHS7ZiqCJmM0plhf-137">
          <mxGeometry width="50" height="50" relative="1" as="geometry">
            <mxPoint x="360" y="1660" as="sourcePoint" />
            <mxPoint x="410" y="1610" as="targetPoint" />
          </mxGeometry>
        </mxCell>
        <mxCell id="z0uvfHS7ZiqCJmM0plhf-143" value="verification saisie cachier" style="ellipse;whiteSpace=wrap;html=1;fillColor=#b1ddf0;strokeColor=#10739e;" vertex="1" parent="WIyWlLk6GJQsqaUBKTNV-1">
          <mxGeometry x="75" y="1630" width="155" height="80" as="geometry" />
        </mxCell>
        <mxCell id="z0uvfHS7ZiqCJmM0plhf-144" value="" style="endArrow=none;html=1;rounded=0;exitX=1;exitY=0.375;exitDx=0;exitDy=0;exitPerimeter=0;" edge="1" parent="WIyWlLk6GJQsqaUBKTNV-1" source="z0uvfHS7ZiqCJmM0plhf-143">
          <mxGeometry width="50" height="50" relative="1" as="geometry">
            <mxPoint x="360" y="1670" as="sourcePoint" />
            <mxPoint x="410" y="1620" as="targetPoint" />
          </mxGeometry>
        </mxCell>
        <mxCell id="z0uvfHS7ZiqCJmM0plhf-145" value="ouvrier agricole" style="shape=umlActor;verticalLabelPosition=bottom;verticalAlign=top;html=1;outlineConnect=0;fillColor=#ffff88;strokeColor=#36393d;" vertex="1" parent="WIyWlLk6GJQsqaUBKTNV-1">
          <mxGeometry x="80" y="1730" width="30" height="60" as="geometry" />
        </mxCell>
        <mxCell id="z0uvfHS7ZiqCJmM0plhf-146" value="consultation du classier" style="ellipse;whiteSpace=wrap;html=1;fillColor=#b1ddf0;strokeColor=#10739e;" vertex="1" parent="WIyWlLk6GJQsqaUBKTNV-1">
          <mxGeometry x="75" y="1920" width="120" height="80" as="geometry" />
        </mxCell>
        <mxCell id="z0uvfHS7ZiqCJmM0plhf-147" value="saisie operation" style="ellipse;whiteSpace=wrap;html=1;fillColor=#b1ddf0;strokeColor=#10739e;" vertex="1" parent="WIyWlLk6GJQsqaUBKTNV-1">
          <mxGeometry x="320" y="1800" width="120" height="80" as="geometry" />
        </mxCell>
        <mxCell id="z0uvfHS7ZiqCJmM0plhf-148" value="&amp;lt;&amp;lt;extend&amp;gt;&amp;lt;" style="endArrow=classic;html=1;rounded=0;" edge="1" parent="WIyWlLk6GJQsqaUBKTNV-1" target="z0uvfHS7ZiqCJmM0plhf-147">
          <mxGeometry relative="1" as="geometry">
            <mxPoint x="180" y="1930" as="sourcePoint" />
            <mxPoint x="340" y="1930" as="targetPoint" />
          </mxGeometry>
        </mxCell>
        <mxCell id="z0uvfHS7ZiqCJmM0plhf-149" value="verification bdd" style="ellipse;whiteSpace=wrap;html=1;fillColor=#b1ddf0;strokeColor=#10739e;" vertex="1" parent="WIyWlLk6GJQsqaUBKTNV-1">
          <mxGeometry x="545" y="1810" width="120" height="80" as="geometry" />
        </mxCell>
        <mxCell id="z0uvfHS7ZiqCJmM0plhf-150" value="Chercheur&amp;nbsp;" style="shape=umlActor;verticalLabelPosition=bottom;verticalAlign=top;html=1;outlineConnect=0;fillColor=#fad7ac;strokeColor=#b46504;" vertex="1" parent="WIyWlLk6GJQsqaUBKTNV-1">
          <mxGeometry x="740" y="1960" width="30" height="60" as="geometry" />
        </mxCell>
        <mxCell id="z0uvfHS7ZiqCJmM0plhf-151" value="" style="endArrow=none;html=1;rounded=0;" edge="1" parent="WIyWlLk6GJQsqaUBKTNV-1">
          <mxGeometry width="50" height="50" relative="1" as="geometry">
            <mxPoint x="520" y="1720" as="sourcePoint" />
            <mxPoint x="610" y="1700" as="targetPoint" />
          </mxGeometry>
        </mxCell>
        <mxCell id="z0uvfHS7ZiqCJmM0plhf-152" value="" style="endArrow=none;html=1;rounded=0;" edge="1" parent="WIyWlLk6GJQsqaUBKTNV-1">
          <mxGeometry width="50" height="50" relative="1" as="geometry">
            <mxPoint x="450" y="1650" as="sourcePoint" />
            <mxPoint x="520" y="1720" as="targetPoint" />
          </mxGeometry>
        </mxCell>
        <mxCell id="z0uvfHS7ZiqCJmM0plhf-153" value="" style="endArrow=none;html=1;rounded=0;exitX=0;exitY=0.5;exitDx=0;exitDy=0;" edge="1" parent="WIyWlLk6GJQsqaUBKTNV-1" source="z0uvfHS7ZiqCJmM0plhf-154">
          <mxGeometry width="50" height="50" relative="1" as="geometry">
            <mxPoint x="130" y="1790" as="sourcePoint" />
            <mxPoint x="380" y="1670" as="targetPoint" />
          </mxGeometry>
        </mxCell>
        <mxCell id="z0uvfHS7ZiqCJmM0plhf-154" value="" style="triangle;whiteSpace=wrap;html=1;direction=west;" vertex="1" parent="WIyWlLk6GJQsqaUBKTNV-1">
          <mxGeometry x="100" y="1750" width="40" height="30" as="geometry" />
        </mxCell>
        <mxCell id="z0uvfHS7ZiqCJmM0plhf-155" value="operation phyto" style="ellipse;whiteSpace=wrap;html=1;fillColor=#b1ddf0;strokeColor=#10739e;" vertex="1" parent="WIyWlLk6GJQsqaUBKTNV-1">
          <mxGeometry x="270" y="1940" width="120" height="80" as="geometry" />
        </mxCell>
        <mxCell id="z0uvfHS7ZiqCJmM0plhf-156" value="Autres auperation" style="ellipse;whiteSpace=wrap;html=1;fillColor=#b1ddf0;strokeColor=#10739e;" vertex="1" parent="WIyWlLk6GJQsqaUBKTNV-1">
          <mxGeometry x="400" y="1950" width="120" height="80" as="geometry" />
        </mxCell>
        <mxCell id="z0uvfHS7ZiqCJmM0plhf-157" value="" style="endArrow=none;html=1;rounded=0;" edge="1" parent="WIyWlLk6GJQsqaUBKTNV-1">
          <mxGeometry width="50" height="50" relative="1" as="geometry">
            <mxPoint x="331" y="1946" as="sourcePoint" />
            <mxPoint x="340" y="1900" as="targetPoint" />
          </mxGeometry>
        </mxCell>
        <mxCell id="z0uvfHS7ZiqCJmM0plhf-158" value="" style="triangle;whiteSpace=wrap;html=1;direction=north;" vertex="1" parent="WIyWlLk6GJQsqaUBKTNV-1">
          <mxGeometry x="330" y="1865" width="20" height="35" as="geometry" />
        </mxCell>
        <mxCell id="z0uvfHS7ZiqCJmM0plhf-159" value="" style="endArrow=none;html=1;rounded=0;exitX=0.283;exitY=0.013;exitDx=0;exitDy=0;exitPerimeter=0;" edge="1" parent="WIyWlLk6GJQsqaUBKTNV-1" source="z0uvfHS7ZiqCJmM0plhf-156" target="z0uvfHS7ZiqCJmM0plhf-160">
          <mxGeometry width="50" height="50" relative="1" as="geometry">
            <mxPoint x="450" y="1940" as="sourcePoint" />
            <mxPoint x="420" y="1890" as="targetPoint" />
          </mxGeometry>
        </mxCell>
        <mxCell id="z0uvfHS7ZiqCJmM0plhf-160" value="" style="triangle;whiteSpace=wrap;html=1;direction=north;" vertex="1" parent="WIyWlLk6GJQsqaUBKTNV-1">
          <mxGeometry x="410" y="1870" width="30" height="20" as="geometry" />
        </mxCell>
        <mxCell id="z0uvfHS7ZiqCJmM0plhf-161" value="notion saisie ok" style="ellipse;whiteSpace=wrap;html=1;fillColor=#b1ddf0;strokeColor=#10739e;" vertex="1" parent="WIyWlLk6GJQsqaUBKTNV-1">
          <mxGeometry x="600" y="1730" width="120" height="80" as="geometry" />
        </mxCell>
        <mxCell id="z0uvfHS7ZiqCJmM0plhf-162" value="correctiondonnes bdd" style="ellipse;whiteSpace=wrap;html=1;fillColor=#b1ddf0;strokeColor=#10739e;" vertex="1" parent="WIyWlLk6GJQsqaUBKTNV-1">
          <mxGeometry x="510" y="1900" width="120" height="80" as="geometry" />
        </mxCell>
        <mxCell id="z0uvfHS7ZiqCJmM0plhf-163" value="" style="endArrow=none;html=1;rounded=0;" edge="1" parent="WIyWlLk6GJQsqaUBKTNV-1">
          <mxGeometry width="50" height="50" relative="1" as="geometry">
            <mxPoint x="660" y="1870" as="sourcePoint" />
            <mxPoint x="790" y="1910" as="targetPoint" />
          </mxGeometry>
        </mxCell>
        <mxCell id="z0uvfHS7ZiqCJmM0plhf-164" value="" style="endArrow=none;html=1;rounded=0;" edge="1" parent="WIyWlLk6GJQsqaUBKTNV-1">
          <mxGeometry width="50" height="50" relative="1" as="geometry">
            <mxPoint x="770" y="1950" as="sourcePoint" />
            <mxPoint x="790" y="1910" as="targetPoint" />
          </mxGeometry>
        </mxCell>
        <mxCell id="z0uvfHS7ZiqCJmM0plhf-165" value="" style="endArrow=none;html=1;rounded=0;exitX=0.75;exitY=0.1;exitDx=0;exitDy=0;exitPerimeter=0;" edge="1" parent="WIyWlLk6GJQsqaUBKTNV-1" source="z0uvfHS7ZiqCJmM0plhf-150">
          <mxGeometry width="50" height="50" relative="1" as="geometry">
            <mxPoint x="760" y="1990" as="sourcePoint" />
            <mxPoint x="810" y="1940" as="targetPoint" />
          </mxGeometry>
        </mxCell>
        <mxCell id="z0uvfHS7ZiqCJmM0plhf-166" value="" style="endArrow=none;html=1;rounded=0;" edge="1" parent="WIyWlLk6GJQsqaUBKTNV-1">
          <mxGeometry width="50" height="50" relative="1" as="geometry">
            <mxPoint x="620" y="2000" as="sourcePoint" />
            <mxPoint x="610" y="1970" as="targetPoint" />
          </mxGeometry>
        </mxCell>
        <mxCell id="z0uvfHS7ZiqCJmM0plhf-167" value="" style="endArrow=none;html=1;rounded=0;" edge="1" parent="WIyWlLk6GJQsqaUBKTNV-1">
          <mxGeometry width="50" height="50" relative="1" as="geometry">
            <mxPoint x="620" y="2000" as="sourcePoint" />
            <mxPoint x="720" y="1990" as="targetPoint" />
          </mxGeometry>
        </mxCell>
        <mxCell id="z0uvfHS7ZiqCJmM0plhf-168" value="redaction synthese" style="ellipse;whiteSpace=wrap;html=1;fillColor=#b1ddf0;strokeColor=#10739e;" vertex="1" parent="WIyWlLk6GJQsqaUBKTNV-1">
          <mxGeometry x="690" y="2180" width="120" height="80" as="geometry" />
        </mxCell>
        <mxCell id="z0uvfHS7ZiqCJmM0plhf-169" value="Analyse resultat" style="ellipse;whiteSpace=wrap;html=1;fillColor=#b1ddf0;strokeColor=#10739e;" vertex="1" parent="WIyWlLk6GJQsqaUBKTNV-1">
          <mxGeometry x="520" y="2180" width="120" height="80" as="geometry" />
        </mxCell>
        <mxCell id="z0uvfHS7ZiqCJmM0plhf-170" value="" style="endArrow=none;html=1;rounded=0;" edge="1" parent="WIyWlLk6GJQsqaUBKTNV-1">
          <mxGeometry width="50" height="50" relative="1" as="geometry">
            <mxPoint x="610" y="2190" as="sourcePoint" />
            <mxPoint x="740" y="2040" as="targetPoint" />
          </mxGeometry>
        </mxCell>
        <mxCell id="z0uvfHS7ZiqCJmM0plhf-171" value="" style="endArrow=none;html=1;rounded=0;" edge="1" parent="WIyWlLk6GJQsqaUBKTNV-1">
          <mxGeometry width="50" height="50" relative="1" as="geometry">
            <mxPoint x="760" y="2170" as="sourcePoint" />
            <mxPoint x="760" y="2050" as="targetPoint" />
          </mxGeometry>
        </mxCell>
      </root>
    </mxGraphModel>
  </diagram>
</mxfile>
